<svg version="1.2" xmlns="http://www.w3.org/2000/svg" viewBox="0 0 4983 174" width="2000" height="70">
	<title>psi-range-mask-svg</title>
	<defs>
		<clipPath clipPathUnits="userSpaceOnUse" id="cp1">
			<path d="m0-61.82h4983.65v294.52h-4983.65z" />
		</clipPath>
	</defs>
	<style>
		.s0 { fill: #fbcf0a } 
		.s1 { fill: #000000 } 
	</style>
	<g id="&lt;Group&gt;">
		<path id="&lt;Path&gt;" class="s0" d="m0-61.8h4983.7v294.5h-4983.7z" />
		<g id="Clip-Path: &lt;Clip Group&gt;" clip-path="url(#cp1)">
			<g id="&lt;Clip Group&gt;">
				<g id="&lt;Group&gt;">
					<path id="&lt;Path&gt;" class="s1" d="m4649.8-92.5l49.4-51.5l235.1 224.8l0.6 0.5l-12.8 12.8l-214.4 220.8l-51.3-49.6l177-182.3z" />
					<path id="&lt;Path&gt;" class="s1" d="m4359.3-92.5l49.4-51.5l235.1 224.8l0.6 0.5l-12.8 12.8l-214.4 220.8l-51.2-49.6l177-182.3z" />
					<path id="&lt;Path&gt;" class="s1" d="m4068.9-92.5l49.4-51.5l235.1 224.8l0.5 0.5l-12.7 12.8l-214.4 220.8l-51.3-49.6l177-182.3z" />
					<path id="&lt;Path&gt;" class="s1" d="m3778.4-92.5l49.4-51.5l235.1 224.8l0.6 0.5l-12.8 12.8l-214.4 220.8l-51.3-49.6l177-182.3z" />
					<path id="&lt;Path&gt;" class="s1" d="m3487.9-92.5l49.4-51.5l235.1 224.8l0.6 0.5l-12.8 12.8l-214.4 220.8l-51.2-49.6l177-182.3z" />
					<path id="&lt;Path&gt;" class="s1" d="m3197.5-92.5l49.4-51.5l235.1 224.8l0.5 0.5l-12.7 12.8l-214.4 220.8l-51.3-49.6l177-182.3z" />
					<path id="&lt;Path&gt;" class="s1" d="m2907-92.5l49.4-51.5l235.1 224.8l0.5 0.5l-12.7 12.8l-214.4 220.8l-51.3-49.6l177-182.3z" />
					<path id="&lt;Path&gt;" class="s1" d="m2616.5-92.5l49.4-51.5l235.1 224.8l0.6 0.5l-12.8 12.8l-214.4 220.8l-51.2-49.6l177-182.3z" />
					<path id="&lt;Path&gt;" class="s1" d="m2326.1-92.5l49.3-51.5l235.2 224.8h-0.1l0.6 0.5l-12.8 12.8l-214.3 220.8l-51.3-49.6l177-182.3z" />
					<path id="&lt;Path&gt;" class="s1" d="m2035.6-92.5l49.4-51.5l235.1 224.8l0.5 0.5l-12.7 12.8l-214.4 220.8l-51.3-49.6l177-182.3z" />
					<path id="&lt;Path&gt;" class="s1" d="m1745.1-92.5l49.4-51.5l235.1 224.8l0.6 0.5l-12.8 12.8l-214.4 220.8l-51.2-49.6l177-182.3z" />
					<path id="&lt;Path&gt;" class="s1" d="m1454.7-92.5l49.3-51.5l235.1 224.8l0.6 0.5l-12.8 12.8l-214.3 220.8l-51.3-49.6l177-182.3z" />
					<path id="&lt;Path&gt;" class="s1" d="m1164.2-92.5l49.4-51.5l235.1 224.8l0.5 0.5l-12.7 12.8l-214.4 220.8l-51.3-49.6l177-182.3z" />
					<path id="&lt;Path&gt;" class="s1" d="m873.7-92.5l49.4-51.5l235.1 224.8l0.6 0.5l-12.8 12.8l-214.4 220.8l-51.2-49.6l176.9-182.3z" />
					<path id="&lt;Path&gt;" class="s1" d="m583.2-92.5l49.4-51.5l235.1 224.8l0.6 0.5l-12.8 12.8l-214.4 220.8l-51.2-49.6l177-182.3z" />
					<path id="&lt;Path&gt;" class="s1" d="m292.8-92.5l49.4-51.5l235.1 224.8l0.5 0.5l-12.7 12.8l-214.4 220.8l-51.3-49.6l177-182.3z" />
					<path id="&lt;Path&gt;" class="s1" d="m2.3-92.5l49.4-51.5l235.1 224.8l0.6 0.5l-12.8 12.8l-214.4 220.8l-51.3-49.6l177-182.3z" />
				</g>
			</g>
		</g>
	</g>
</svg>